<mxfile host="Electron" modified="2024-07-12T02:17:29.094Z" agent="Mozilla/5.0 (Windows NT 10.0; Win64; x64) AppleWebKit/537.36 (KHTML, like Gecko) draw.io/24.6.4 Chrome/124.0.6367.207 Electron/30.0.6 Safari/537.36" etag="fQkt4v54jwS3TMsP9s2i" version="24.6.4" type="device">
  <diagram name="第 1 页" id="Ja5XQF4rjVb7iGGHnRmG">
    <mxGraphModel dx="1691" dy="516" grid="1" gridSize="10" guides="1" tooltips="1" connect="1" arrows="1" fold="1" page="1" pageScale="1" pageWidth="827" pageHeight="1169" math="0" shadow="0">
      <root>
        <mxCell id="0" />
        <mxCell id="1" parent="0" />
        <mxCell id="mfIFPBtIxTxuy6T5pO3K-1" value="炮弹" style="ellipse;whiteSpace=wrap;html=1;" vertex="1" parent="1">
          <mxGeometry x="294" y="210" width="120" height="80" as="geometry" />
        </mxCell>
        <mxCell id="mfIFPBtIxTxuy6T5pO3K-2" value="Actor" style="shape=umlActor;verticalLabelPosition=bottom;verticalAlign=top;html=1;outlineConnect=0;" vertex="1" parent="1">
          <mxGeometry x="130" y="360" width="30" height="60" as="geometry" />
        </mxCell>
        <mxCell id="mfIFPBtIxTxuy6T5pO3K-5" value="如何在不耦合的情况，让炮弹获知角色的位置&lt;div style=&quot;font-size: 22px;&quot;&gt;并且进行碰撞检测？&lt;/div&gt;&lt;div style=&quot;font-size: 22px;&quot;&gt;爆炸后还能根据爆炸范围，降低角色的血量？&lt;/div&gt;" style="text;html=1;align=center;verticalAlign=middle;resizable=0;points=[];autosize=1;strokeColor=none;fillColor=none;fontSize=22;" vertex="1" parent="1">
          <mxGeometry x="110" y="90" width="460" height="90" as="geometry" />
        </mxCell>
        <mxCell id="mfIFPBtIxTxuy6T5pO3K-6" value="" style="endArrow=classic;html=1;rounded=0;" edge="1" parent="1">
          <mxGeometry width="50" height="50" relative="1" as="geometry">
            <mxPoint x="380" y="300" as="sourcePoint" />
            <mxPoint x="190" y="380" as="targetPoint" />
          </mxGeometry>
        </mxCell>
        <mxCell id="mfIFPBtIxTxuy6T5pO3K-7" value="不断发送: 我的当前位置" style="text;html=1;align=center;verticalAlign=middle;resizable=0;points=[];autosize=1;strokeColor=none;fillColor=none;" vertex="1" parent="1">
          <mxGeometry x="294" y="338" width="150" height="30" as="geometry" />
        </mxCell>
        <mxCell id="mfIFPBtIxTxuy6T5pO3K-8" value="角色根据炮弹位置，自行检测是否发射碰撞" style="text;html=1;align=center;verticalAlign=middle;resizable=0;points=[];autosize=1;strokeColor=none;fillColor=none;" vertex="1" parent="1">
          <mxGeometry x="-80" y="330" width="250" height="30" as="geometry" />
        </mxCell>
        <mxCell id="mfIFPBtIxTxuy6T5pO3K-9" value="难点：炮弹如何向角色发送当前位置？" style="text;html=1;align=center;verticalAlign=middle;resizable=0;points=[];autosize=1;strokeColor=none;fillColor=none;fontSize=22;" vertex="1" parent="1">
          <mxGeometry x="460" y="230" width="400" height="40" as="geometry" />
        </mxCell>
        <mxCell id="mfIFPBtIxTxuy6T5pO3K-12" value="" style="shape=image;verticalLabelPosition=bottom;labelBackgroundColor=default;verticalAlign=top;aspect=fixed;imageAspect=0;image=https://www.danmuxiu.cn/uploads/allimg/211122/1-211122210243A1.jpg;" vertex="1" parent="1">
          <mxGeometry x="460" y="290" width="303" height="384.17" as="geometry" />
        </mxCell>
        <mxCell id="mfIFPBtIxTxuy6T5pO3K-13" value="&lt;font color=&quot;#ffff33&quot; style=&quot;font-size: 32px;&quot;&gt;我宣布个事！&lt;/font&gt;" style="text;html=1;align=center;verticalAlign=middle;resizable=0;points=[];autosize=1;strokeColor=none;fillColor=none;" vertex="1" parent="1">
          <mxGeometry x="530" y="318" width="220" height="50" as="geometry" />
        </mxCell>
        <mxCell id="mfIFPBtIxTxuy6T5pO3K-14" value="可以通过广播的形式？" style="text;html=1;align=center;verticalAlign=middle;resizable=0;points=[];autosize=1;strokeColor=none;fillColor=none;" vertex="1" parent="1">
          <mxGeometry x="294" y="400" width="140" height="30" as="geometry" />
        </mxCell>
        <mxCell id="mfIFPBtIxTxuy6T5pO3K-15" value="新建子弹管理类，管理子弹的创建和删除&lt;div style=&quot;font-size: 22px;&quot;&gt;使用单例模式，其他类可以之间通过子弹管理类&lt;/div&gt;&lt;div style=&quot;font-size: 22px;&quot;&gt;访问子弹的位置&lt;/div&gt;&lt;div style=&quot;font-size: 22px;&quot;&gt;从而进行碰撞检测&lt;/div&gt;" style="text;html=1;align=center;verticalAlign=middle;resizable=0;points=[];autosize=1;strokeColor=none;fillColor=none;fontSize=22;" vertex="1" parent="1">
          <mxGeometry x="-20" y="460" width="490" height="120" as="geometry" />
        </mxCell>
        <mxCell id="mfIFPBtIxTxuy6T5pO3K-16" value="再新建一个碰撞管理类，也使用单例模式&lt;div style=&quot;font-size: 22px;&quot;&gt;把角色对象指针存入该类&lt;/div&gt;&lt;div style=&quot;font-size: 22px;&quot;&gt;当子弹飞行时，调用碰撞检测函数&lt;/div&gt;&lt;div style=&quot;font-size: 22px;&quot;&gt;若发生检测到碰撞，设置子弹为可删除，设置角色血量减少&lt;/div&gt;" style="text;html=1;align=center;verticalAlign=middle;resizable=0;points=[];autosize=1;strokeColor=none;fillColor=none;fontSize=22;" vertex="1" parent="1">
          <mxGeometry x="-100" y="600" width="600" height="120" as="geometry" />
        </mxCell>
      </root>
    </mxGraphModel>
  </diagram>
</mxfile>
